M48
;Layer_Color=9474304
;FILE_FORMAT=4:3
METRIC,TZ
;TYPE=PLATED
T01F00S00C0.250
T02F00S00C0.300
T03F00S00C0.400
T04F00S00C0.600
T05F00S00C0.800
T06F00S00C0.900
T07F00S00C1.020
T08F00S00C1.067
T09F00S00C1.300
T10F00S00C2.540
%
T01
X39169Y2900
X39235Y5938
X39969Y5938
X39500Y7651
X38705Y7641
X39350Y9467
X39350Y10267
X39031Y11421
X39400Y12049
X38600Y12049
X41000Y12049
X41800Y12049
X41431Y11421
X42375Y11432
X42375Y12545
X42375Y13219
X45385Y14695
X45385Y15331
X45385Y15965
X45381Y16601
X45385Y17239
X43464Y16627
X39464Y16595
X38774Y16627
X38774Y17395
X39464Y17395
X50341Y17395
X50341Y16595
X50341Y15795
X52200Y14436
X53080Y14436
X52660Y13705
X53580Y13705
X51740Y13705
X52010Y10968
X51840Y7948
X52760Y7948
X53680Y7948
X53180Y7053
X52300Y7053
X50341Y6780
X50341Y5980
X50341Y7580
X45385Y7423
X45385Y6789
X45385Y6149
X45385Y5515
X45385Y4879
X42764Y5734
X52300Y3238
X53180Y3238
X52760Y2508
X51840Y2508
X53680Y2508
X38222Y6888
X36959Y6259
X38048Y11432
X38048Y12545
X38044Y13207
X33954Y12652
X33920Y10678
X34769Y15642
X28396Y15246
X28800Y17179
X21900Y17575
X16264Y16835
X15231Y16812
X13310Y14837
X13310Y13380
X13280Y10875
X9683Y12345
X9683Y13281
X10426Y14925
X10426Y15799
X9663Y17080
X6269Y17179
X6213Y14550
X6213Y13765
X4203Y15240
X6444Y7679
X6444Y6642
X16210Y5077
X17099Y5072
X18338Y5119
X19729Y3750
X21113Y3747
X22526Y3738
X25385Y5278
X24881Y9417
X24881Y10317
X28159Y7491
X31253Y7477
X34300Y1650
X34322Y23080
X34894Y24925
X35800Y26621
X37448Y21623
X29739Y23937
X27861Y23937
X26300Y23063
X23616Y21447
X21208Y21726
X21205Y23106
X19413Y22850
X18657Y22850
X17900Y22850
X15600Y24213
X20229Y24770
X22673Y18279
X23368Y18955
X27260Y18783
X28733Y19069
X32100Y30950
X32100Y31750
X38200Y31196
X6005Y29204
X5978Y27847
X5844Y26250
X5732Y23827
X5090Y21766
X7191Y21235
X7191Y20335
X8941Y18583
X11860Y17954
X39350Y18355
X39350Y19155
X38566Y20391
X39769Y22987
X39400Y23585
X40200Y23585
X41000Y23585
X41800Y23585
X41369Y24213
X40569Y24213
X39769Y24213
X38969Y24213
X38774Y25972
X39571Y25975
X39350Y27821
X39350Y28621
X39150Y29875
X41200Y29875
X41931Y29875
X42675Y29875
X43455Y29875
X42239Y31192
X42139Y25239
X42139Y24505
X45390Y24534
X45390Y25169
X45390Y25804
X45386Y26439
X45390Y27078
X45600Y22647
X43580Y19990
X43455Y19044
X43464Y17877
X52300Y18355
X53180Y18355
X52760Y19011
X53680Y19011
X51859Y18948
X52000Y20852
X51740Y25052
X52660Y25052
X53580Y25052
X53080Y25932
X52200Y25932
X50341Y25610
X50341Y26410
X50341Y27210
X51840Y29350
X53680Y29350
X52000Y31150
T02
X14524Y10150
X14524Y11350
X14524Y12550
X15724Y12550
X16924Y12550
X16924Y11350
X15724Y11350
X15724Y10150
X16924Y10150
X18128Y10150
X18129Y11350
X18128Y12550
X19400Y12555
X19413Y11155
X19413Y9955
X19909Y14925
X19909Y16125
X18708Y16125
X17508Y16125
X17508Y14925
X18708Y14925
X16259Y14739
X15208Y14739
X15208Y15939
X16259Y15939
T03
X5019Y8717
X4334Y10523
X12628Y6642
X35525Y6280
X35500Y3238
X36184Y10267
X35544Y16900
X37459Y17575
X32366Y15868
X32012Y22967
X35737Y21387
X37300Y24770
X26300Y21890
X13619Y21520
X11118Y21358
T04
X43875Y31450
T05
X22550Y28473
X26050Y28473
T06
X2074Y4579
X2074Y7119
X2074Y9659
X24720Y2150
X27260Y2150
X29800Y2150
X32340Y2150
X2024Y28229
X2024Y30769
T07
X2049Y13615
X2049Y16155
X2049Y18695
X2049Y21235
X2049Y23775
T08
X8849Y1947
X11389Y2353
X13929Y1947
X16469Y2353
X19008Y1947
T09
X52800Y5250
X52800Y16500
X52800Y27751
T10
X10890Y29389
X15890Y29389
M30
